<?xml version="1.0" encoding="UTF-8"?>
<svg width="28px" height="21px" viewBox="0 0 28 21" version="1.1" xmlns="http://www.w3.org/2000/svg" xmlns:xlink="http://www.w3.org/1999/xlink">
    <!-- Generator: Sketch 42 (36781) - http://www.bohemiancoding.com/sketch -->
    <title>quote_icon</title>
    <desc>Created with Sketch.</desc>
    <defs></defs>
    <g id="Page-1" stroke="none" stroke-width="1" fill="none" fill-rule="evenodd">
        <g id="quote_icon" transform="translate(14.000000, 10.500000) rotate(180.000000) translate(-14.000000, -10.500000) " fill-rule="nonzero" fill="#500850">
            <g id="Page-1">
                <g id="Mobile-Portrait-Copy-4">
                    <g id="Group-3">
                        <path d="M27.074449,15.6795102 C27.074449,17.2577494 26.543842,18.5230429 25.4826122,19.4754286 C24.4213824,20.4278143 23.1016678,20.904 21.5234286,20.904 C19.5098131,20.904 17.9315976,20.2645506 16.7887347,18.9856327 C15.6458718,17.7067147 15.074449,16.0060514 15.074449,13.8835918 C15.074449,11.7067102 15.4145816,9.8563886 16.0948571,8.3325714 C16.7751327,6.8087543 17.591451,5.5434608 18.5438367,4.5366531 C19.4962224,3.5298453 20.4894098,2.7407376 21.5234286,2.1693061 C22.5574473,1.59787469 23.4553976,1.1761102 24.2173061,0.904 L26.829551,5.3121633 C25.7411102,5.7475396 24.8159494,6.4414102 24.0540408,7.3937959 C23.2921322,8.3461816 22.8567624,9.3665796 22.7479184,10.4550204 C23.8363592,10.4550204 24.8295465,10.9312061 25.7275102,11.8835918 C26.6254739,12.8359776 27.074449,14.101271 27.074449,15.6795102 Z M12.952,15.6795102 C12.952,17.2577494 12.4213931,18.5230429 11.3601633,19.4754286 C10.2989335,20.4278143 8.97921878,20.904 7.40097959,20.904 C5.38736408,20.904 3.80914857,20.2645506 2.66628571,18.9856327 C1.52342286,17.7067147 0.952,16.0060514 0.952,13.8835918 C0.952,11.7067102 1.29213265,9.8563886 1.97240816,8.3325714 C2.65268367,6.8087543 3.46900204,5.5434608 4.42138776,4.5366531 C5.37377347,3.5298453 6.36696082,2.7407376 7.40097959,2.1693061 C8.43499837,1.59787469 9.33294857,1.1761102 10.0948571,0.904 L12.707102,5.3121633 C11.6186612,5.7475396 10.6935004,6.4414102 9.93159184,7.3937959 C9.16968327,8.3461816 8.73431347,9.3665796 8.62546939,10.4550204 C9.7139102,10.4550204 10.7070976,10.9312061 11.6050612,11.8835918 C12.5030249,12.8359776 12.952,14.101271 12.952,15.6795102 Z" id="“"></path>
                    </g>
                </g>
            </g>
        </g>
    </g>
</svg>