<svg viewBox="0 0 28 21" xmlns="http://www.w3.org/2000/svg"><path d="M.926 5.32c0-1.578.53-2.843 1.591-3.795C3.58.572 4.898.096 6.477.096c2.013 0 3.591.64 4.734 1.918 1.143 1.28 1.715 2.98 1.715 5.102 0 2.177-.34 4.028-1.02 5.551-.681 1.524-1.497 2.79-2.45 3.796-.952 1.007-1.945 1.796-2.98 2.368-1.033.571-1.931.993-2.693 1.265L1.17 15.688c1.089-.436 2.014-1.13 2.776-2.082s1.197-1.973 1.306-3.061c-1.088 0-2.082-.476-2.98-1.429C1.375 8.164.926 6.9.926 5.32zm14.122 0c0-1.578.53-2.843 1.592-3.795C17.7.572 19.02.096 20.599.096c2.014 0 3.592.64 4.735 1.918 1.143 1.28 1.714 2.98 1.714 5.102 0 2.177-.34 4.028-1.02 5.551-.68 1.524-1.497 2.79-2.45 3.796-.952 1.007-1.945 1.796-2.979 2.368-1.034.571-1.932.993-2.694 1.265l-2.612-4.408c1.088-.436 2.013-1.13 2.775-2.082s1.198-1.973 1.307-3.061c-1.089 0-2.082-.476-2.98-1.429-.898-.952-1.347-2.217-1.347-3.796z" fill="#500850"/></svg>