<svg viewBox="0 0 96 26" xmlns="http://www.w3.org/2000/svg"><path d="M95.228 2.366H.238L2.002 0h93.686M4.874 7.491H1.796L1.16 9.234.144 9.142l.154-2.973H11.4l.144 2.973-1.006.092-.646-1.743H6.824v11.193l1.57.348-.206 1.005H3.51l-.205-1.005 1.57-.348V7.49zm8.53.031l-1.57-.348.204-1.005h4.67l.205 1.005-1.56.348v4.54h6.403v-4.54l-1.56-.348.205-1.005h4.68l.205 1.005-1.58.348v11.162l1.58.348-.206 1.005h-4.679l-.205-1.005 1.56-.348v-5.3h-6.403v5.3l1.56.348-.206 1.005h-4.669l-.205-1.005 1.57-.348V7.522zm16.368 5.924v5.269h4.935l.852-1.979 1.067.236-.246 3.065h-9.923l-.205-1.005 1.57-.348V7.522l-1.57-.348.205-1.005h9.615l.246 3.075-1.056.226-.852-1.979h-4.638v4.633h3.663l.349-1.25 1.016.205v3.423l-1.016.205-.349-1.26h-3.663zM44.46 7.522l-1.57-.348.205-1.005h4.382l4.473 10.68h.165l4.289-10.68h4.484l.205 1.005-1.56.348v11.162l1.56.348-.205 1.005h-4.669l-.205-1.005 1.57-.348V7.634h-.164l-5.05 12.404h-1.077L46.06 7.635h-.164v11.049l1.56.348-.205 1.005h-4.156l-.205-1.005 1.57-.348V7.522zm16.738 11.51l1.108-.297 4.515-12.566h1.529l4.402 12.566 1.108.297-.205 1.005h-3.95l-.206-1.005 1.314-.297-.965-2.86H64.81l-.985 2.86 1.313.297-.205 1.005h-3.53l-.205-1.005zm4.074-4.479h4.125l-1.991-5.832h-.103l-2.031 5.832zm14.265-2.326c1.286.751 2.225 1.44 2.816 2.065.592.625.888 1.361.888 2.209 0 1.127-.44 2.036-1.319 2.726s-2.054 1.035-3.524 1.035c-.821 0-1.572-.063-2.253-.19-.68-.126-1.222-.278-1.626-.456l-.216-2.654 1.201-.256.841 1.988c.254.075.536.135.847.18.311.044.662.066 1.052.066.506 0 .99-.034 1.452-.102a8.603 8.603 0 0 0 1.287-.287c.069-.171.137-.398.206-.682a4.35 4.35 0 0 0 .102-1.01c0-.43-.202-.88-.605-1.347-.404-.468-1.276-1.106-2.617-1.912-1.737-1.025-2.8-1.818-3.186-2.378a3.164 3.164 0 0 1-.58-1.834c0-.998.43-1.821 1.288-2.47.859-.65 2.044-.974 3.556-.974.574 0 1.15.04 1.729.123a8.657 8.657 0 0 1 1.677.41l.216 2.767-1.078.226-.84-1.979a6.55 6.55 0 0 0-.858-.169 7.082 7.082 0 0 0-.908-.056 9.14 9.14 0 0 0-1.477.113 7.078 7.078 0 0 0-1.16.276 4.65 4.65 0 0 0-.195 1.374c0 .485.204.93.61 1.337.408.407 1.299 1.027 2.674 1.86zm8.867-4.736h-3.078l-.636 1.743-1.016-.092.154-2.973H94.93l.144 2.973-1.005.092-.647-1.743h-3.068v11.193l1.57.348-.205 1.005h-4.68l-.205-1.005 1.57-.348V7.49zM.699 23.615h95.227l-1.767 2.365H.24z" fill="#500850" fill-rule="evenodd"/></svg>