<?xml version="1.0" encoding="UTF-8"?>
<svg width="46px" height="46px" viewBox="0 0 46 46" version="1.1" xmlns="http://www.w3.org/2000/svg" xmlns:xlink="http://www.w3.org/1999/xlink">
    <!-- Generator: Sketch 42 (36781) - http://www.bohemiancoding.com/sketch -->
    <title>Group 6</title>
    <desc>Created with Sketch.</desc>
    <defs></defs>
    <g id="Welcome" stroke="none" stroke-width="1" fill="none" fill-rule="evenodd">
        <g id="Mobile-Portrait-Copy-15" transform="translate(-71.000000, -414.000000)">
            <g id="Group-6" transform="translate(71.000000, 414.000000)">
                <rect id="Rectangle-15" fill="#55ACEE" x="0" y="0" width="46" height="46" rx="4"></rect>
                <path d="M22.6533695,18.2759971 L22.7053935,19.1338479 L21.8383273,19.0288049 C18.6822064,18.6261403 15.9249359,17.2605818 13.5838572,14.9671439 L12.4393299,13.8291785 L12.1445274,14.6695222 C11.5202397,16.5427883 11.9190902,18.5210973 13.2196894,19.8516414 C13.9133424,20.5869421 13.7572705,20.6919851 12.5607191,20.2543061 C12.1445274,20.1142488 11.7803596,20.0092059 11.7456769,20.0617274 C11.6242877,20.1842775 12.0404794,21.777429 12.3699646,22.4076868 C12.820839,23.2830447 13.7399291,24.1408956 14.7457259,24.6486032 L15.5954508,25.0512679 L14.589654,25.068775 C13.6185399,25.068775 13.5838572,25.0862822 13.6879052,25.4539325 C14.0347316,26.5918979 15.4046962,27.7998919 16.9307327,28.3251067 L18.0058947,28.6927571 L17.0694633,29.2529862 C15.6821574,30.0583156 14.052073,30.5135017 12.4219885,30.548516 C11.641629,30.5660232 11,30.6360518 11,30.6885733 C11,30.8636449 13.1156415,31.8440458 14.3468755,32.2292034 C18.0405774,33.3671687 22.4279323,32.8769683 25.7227838,30.9336735 C28.0638625,29.5506079 30.4049411,26.8019838 31.4974445,24.1408956 C32.0870495,22.7228156 32.6766545,20.131756 32.6766545,18.8887477 C32.6766545,18.0834183 32.7286785,17.9783753 33.6997926,17.0154816 C34.2720563,16.4552525 34.8096373,15.8425019 34.9136853,15.6674303 C35.0870985,15.3347942 35.0697572,15.3347942 34.1853497,15.6324159 C32.7113372,16.1576307 32.5032413,16.0876021 33.2315769,15.2997799 C33.7691579,14.7395508 34.4107869,13.7241355 34.4107869,13.4265138 C34.4107869,13.3739923 34.1506671,13.4615281 33.8558645,13.6190926 C33.5437207,13.7941642 32.8500678,14.0567716 32.3298281,14.214336 L31.3933966,14.5119577 L30.5436717,13.9342215 C30.075456,13.6190926 29.4164857,13.2689494 29.0696592,13.1639064 C28.1852517,12.9188062 26.8326285,12.9538205 26.0349276,13.2339351 C23.8672621,14.0217573 22.4972976,16.0525878 22.6533695,18.2759971 Z" id="Shape" fill="#FFFFFF"></path>
            </g>
        </g>
    </g>
</svg>