<svg viewBox="0 0 50 36" xmlns="http://www.w3.org/2000/svg"><g fill="none" fill-rule="evenodd"><rect fill="#55ACEE" width="50" height="36" rx="4"/><path d="M25.12 14.129l.04.671-.678-.082c-2.47-.315-4.628-1.384-6.46-3.178l-.896-.891-.23.658c-.489 1.466-.177 3.014.841 4.055.543.576.42.658-.516.315-.325-.11-.61-.192-.637-.15-.095.095.23 1.342.488 1.836.353.685 1.072 1.356 1.86 1.753l.664.315-.787.014c-.76 0-.787.014-.705.302.271.89 1.343 1.836 2.537 2.247l.842.287-.733.439a7.64 7.64 0 0 1-3.637 1.014c-.61.013-1.113.068-1.113.11 0 .136 1.656.904 2.62 1.205 2.89.89 6.324.507 8.902-1.014 1.832-1.082 3.664-3.233 4.52-5.316.46-1.11.922-3.138.922-4.11 0-.63.041-.713.801-1.466.448-.439.869-.918.95-1.055.136-.26.122-.26-.57-.028-1.154.411-1.316.356-.746-.26.42-.439.922-1.233.922-1.466 0-.041-.203.027-.434.15-.244.138-.787.343-1.194.466l-.733.233-.665-.452c-.366-.246-.882-.52-1.154-.603-.692-.192-1.75-.164-2.375.055-1.696.617-2.768 2.206-2.646 3.946z" fill="#FFF"/></g></svg>