<svg viewBox="0 0 50 36" xmlns="http://www.w3.org/2000/svg" xmlns:xlink="http://www.w3.org/1999/xlink"><defs><path id="a" d="M0 0h20.341v20.342H0V0z"/></defs><g fill="none" fill-rule="evenodd"><rect fill="#25D366" width="50" height="36" rx="4"/><g transform="translate(15 8)"><mask id="b" fill="#fff"><use xlink:href="#a"/></mask><path d="M14.83 12.19c-.252-.126-1.497-.735-1.729-.82-.232-.084-.4-.125-.569.127-.169.252-.654.819-.801.987-.148.168-.296.19-.549.063-.253-.126-1.068-.392-2.035-1.25-.752-.668-1.26-1.493-1.407-1.745-.148-.252-.016-.388.11-.514.114-.113.254-.294.38-.441.127-.147.169-.252.253-.42.084-.168.042-.315-.021-.441s-.57-1.366-.78-1.87c-.206-.492-.414-.425-.57-.433a10.198 10.198 0 0 0-.485-.009.932.932 0 0 0-.674.315c-.232.253-.886.862-.886 2.102 0 1.24.907 2.437 1.033 2.605.127.168 1.785 2.712 4.323 3.803.604.26 1.075.415 1.443.53.606.192 1.158.165 1.594.1.486-.072 1.497-.609 1.708-1.197.21-.589.21-1.093.148-1.198-.064-.105-.232-.168-.485-.294m-4.618 6.275h-.003a8.436 8.436 0 0 1-4.285-1.168l-.307-.182-3.186.832.85-3.092-.2-.317a8.328 8.328 0 0 1-1.287-4.458c.002-4.62 3.778-8.378 8.421-8.378a8.386 8.386 0 0 1 5.952 2.457 8.307 8.307 0 0 1 2.463 5.928c-.002 4.62-3.778 8.378-8.418 8.378m7.164-15.509A10.087 10.087 0 0 0 10.213 0C4.631 0 .087 4.522.085 10.08c0 1.776.466 3.51 1.352 5.038L0 20.342l5.369-1.402a10.157 10.157 0 0 0 4.84 1.227h.004c5.582 0 10.126-4.522 10.128-10.08a9.995 9.995 0 0 0-2.964-7.13" fill="#FFF" mask="url(#b)"/></g></g></svg>