<?xml version="1.0" encoding="UTF-8"?>
<svg width="46px" height="46px" viewBox="0 0 46 46" version="1.1" xmlns="http://www.w3.org/2000/svg" xmlns:xlink="http://www.w3.org/1999/xlink">
    <!-- Generator: Sketch 42 (36781) - http://www.bohemiancoding.com/sketch -->
    <title>Group 7</title>
    <desc>Created with Sketch.</desc>
    <defs>
        <polygon id="path-1" points="1.24105012e-05 0 25.9914368 0 25.9914368 25.9922618 1.24105012e-05 25.9922618 1.24105012e-05 3.51051993e-15"></polygon>
    </defs>
    <g id="Welcome" stroke="none" stroke-width="1" fill="none" fill-rule="evenodd">
        <g id="Mobile-Portrait-Copy-15" transform="translate(-127.000000, -414.000000)">
            <g id="Group-7" transform="translate(127.000000, 414.000000)">
                <rect id="Rectangle-15" fill="#25D366" x="0" y="0" width="46" height="46" rx="4"></rect>
                <g id="Page-1" transform="translate(10.000000, 10.000000)">
                    <mask id="mask-2" fill="white">
                        <use xlink:href="#path-1"></use>
                    </mask>
                    <g id="Clip-2"></g>
                    <path d="M18.9501652,15.5760195 C18.6268095,15.4149553 17.0370243,14.6364993 16.7405995,14.5289791 C16.4442368,14.4215824 16.2286663,14.3679767 16.0130959,14.6900432 C15.7975255,15.0121715 15.1778072,15.7371454 14.9891675,15.9519387 C14.80059,16.1666703 14.6119504,16.1936584 14.2885947,16.0324708 C13.9652391,15.8714067 12.9233155,15.5316157 11.6882224,14.4351074 C10.7269671,13.5817392 10.0779599,12.5279055 9.88938234,12.2057154 C9.70074272,11.8835254 9.86921527,11.7093686 10.0311103,11.5489221 C10.1766234,11.4046561 10.3545279,11.1730029 10.5161747,10.9850741 C10.6778835,10.7972071 10.7317451,10.6628841 10.8395303,10.4482143 C10.9473155,10.2333591 10.8934539,10.0454922 10.8125375,9.88442803 C10.7317451,9.7233639 10.0850339,8.13921663 9.81560191,7.49477482 C9.55311981,6.86731639 9.28654224,6.95229501 9.08803628,6.94235202 C8.89964487,6.9330266 8.68382625,6.93105036 8.4683179,6.93105036 C8.25274749,6.93105036 7.90239905,7.01158242 7.60597422,7.33371069 C7.30961146,7.65590071 6.47426062,8.43454204 6.47426062,10.018504 C6.47426062,11.6026513 7.63290501,13.1328841 7.79461384,13.3476774 C7.95632267,13.5625325 10.0747332,16.8130884 13.31859,18.2070836 C14.0900267,18.5387226 14.6923704,18.7367178 15.1619838,18.8849981 C15.9365852,19.129991 16.6415017,19.0954067 17.1986711,19.0125278 C17.8199408,18.9202 19.1118119,18.2340717 19.381306,17.4823568 C19.6507379,16.7304565 19.6507379,16.0861382 19.5698835,15.9519387 C19.4890912,15.8176774 19.2735208,15.7371454 18.9501652,15.5760195 M13.0500888,23.5937154 L13.0457451,23.5937154 C11.1156019,23.5929743 9.22250406,23.0768651 7.57103866,22.1015254 L7.1782463,21.8695017 L3.10722959,22.932352 L4.19383103,18.9819577 L3.93811265,18.5768888 C2.86137757,16.8724993 2.29266635,14.9025515 2.29353508,12.8797392 C2.29589308,6.97736865 7.12122005,2.17533539 13.0543704,2.17533539 C15.9274014,2.17632352 18.6280506,3.29129739 20.6589671,5.31485083 C22.6897594,7.33828076 23.8075112,10.027953 23.8063943,12.8883853 C23.8039742,18.7912499 18.9787093,23.5937154 13.0500888,23.5937154 M22.2045709,3.77726888 C19.7612535,1.34271781 16.511936,0.00140190024 13.0499647,-1.85273159e-05 C5.91684296,-1.85273159e-05 0.111334606,5.77753967 0.108480191,12.8789363 C0.107549403,15.1490266 0.703439618,17.3647083 1.8359599,19.3180432 L1.24105012e-05,25.9922618 L6.86041337,24.2012261 C8.7506568,25.2273306 10.8788716,25.7682048 13.0448143,25.7688841 L13.0500888,25.7688841 L13.0501508,25.7688841 C20.1825279,25.7688841 25.9885327,19.9907701 25.9914492,12.8892499 C25.9927523,9.44773919 24.6478883,6.21175819 22.2045709,3.77726888" id="Fill-1" fill="#FFFFFF" mask="url(#mask-2)"></path>
                </g>
            </g>
        </g>
    </g>
</svg>